<?xml version="1.0" encoding="UTF-8"?><svg id="ikoner" xmlns="http://www.w3.org/2000/svg" width="208.19" height="56.47" viewBox="0 0 208.19 56.47"><defs><style>.cls-1{fill:#4a1942;}.cls-1,.cls-2{stroke-width:0px;}.cls-2{fill:#893068;}</style></defs><path class="cls-1" d="m18.47,43.48h-4.9L2.91,10.4h4.9l8.3,28.13,8.3-28.13h4.61l-10.56,33.08Z"/><path class="cls-1" d="m51.49,30.8c0,7.82-4.13,13.25-11.28,13.25s-11.28-5.18-11.28-13.2,4.13-13.25,11.33-13.25,11.23,5.18,11.23,13.2Zm-17.81.05c0,6.58,2.3,9.65,6.53,9.65s6.53-3.07,6.53-9.7-2.3-9.65-6.48-9.65-6.58,3.07-6.58,9.7Z"/><path class="cls-1" d="m77.61,30.8c0,7.82-4.13,13.25-11.28,13.25s-11.28-5.18-11.28-13.2,4.13-13.25,11.33-13.25,11.23,5.18,11.23,13.2Zm-17.81.05c0,6.58,2.3,9.65,6.53,9.65s6.53-3.07,6.53-9.7-2.3-9.65-6.48-9.65-6.58,3.07-6.58,9.7Z"/><path class="cls-1" d="m96.33,17.89l-.82,4.32c-.77-.19-1.3-.29-2.21-.29-3.17,0-4.99,2.26-6.05,7.1v14.45h-4.42v-25.3h3.79l.43,5.14c1.34-3.79,3.7-5.71,6.77-5.71.82,0,1.73.1,2.5.29Z"/><path class="cls-1" d="m117.83,8v35.47h-3.89l-.43-3.5c-1.63,2.54-4.18,4.08-7.3,4.08-6.14,0-9.55-5.23-9.55-13.11s3.74-13.34,9.94-13.34c2.98,0,5.14,1.34,6.82,3.12V7.47l4.42.53Zm-4.42,28.8v-12.38c-1.58-2.02-3.36-3.31-5.86-3.31-3.79,0-6.14,3.17-6.14,9.75s2.11,9.7,5.76,9.7c2.83,0,4.56-1.39,6.24-3.74Z"/><path class="cls-1" d="m143.89,32.34h-16.13c.43,5.86,3.17,8.11,6.82,8.11,2.5,0,4.37-.67,6.58-2.21l1.92,2.64c-2.5,1.97-5.33,3.17-8.83,3.17-7.06,0-11.18-4.94-11.18-12.96s3.98-13.49,10.51-13.49,10.42,4.75,10.42,12.48c0,.86-.05,1.68-.1,2.26Zm-4.27-3.55c0-4.94-1.97-7.68-5.95-7.68-3.36,0-5.57,2.35-5.9,7.97h11.86v-.29Z"/><path class="cls-2" d="m153.11,40.69c0,1.87-1.44,3.36-3.36,3.36s-3.31-1.49-3.31-3.36,1.44-3.31,3.31-3.31,3.36,1.49,3.36,3.31Z"/><path class="cls-2" d="m177.06,8v35.47h-3.89l-.43-3.5c-1.63,2.54-4.18,4.08-7.3,4.08-6.14,0-9.55-5.23-9.55-13.11s3.74-13.34,9.94-13.34c2.98,0,5.14,1.34,6.82,3.12V7.47l4.42.53Zm-4.42,28.8v-12.38c-1.58-2.02-3.36-3.31-5.86-3.31-3.79,0-6.14,3.17-6.14,9.75s2.11,9.7,5.76,9.7c2.83,0,4.56-1.39,6.24-3.74Z"/><path class="cls-2" d="m188.39,43.48h-4.42V8l4.42-.53v36Zm5.23-14.11l10.37,14.11h-5.28l-10.03-13.83,9.31-11.47h4.94l-9.31,11.18Z"/></svg>