<?xml version="1.0" encoding="UTF-8"?><svg id="Layer_4" xmlns="http://www.w3.org/2000/svg" width="1920" height="1080" viewBox="0 0 1920 1080"><defs><style>.cls-1{fill:#893068;stroke-width:0px;}</style></defs><path class="cls-1" d="m-1.11,381.76c29.02,25.03,74.73,58.35,137.22,79.62,107.84,36.7,158.66,1.11,227.01,44.05,79.22,49.76,48.75,121.29,116.97,157.99,95.94,51.6,191.29-70.97,292.46-22.16,73.86,35.64,43.11,110.65,146.23,181.68,18.98,13.07,104.43,71.93,184.67,46.72,38.6-12.13,41.7-32.94,84.71-40.66,40.89-7.34,93.86,1.45,130.45,33.88,30.61,27.13,20.41,44.77,55.91,81.32,9.33,9.61,43.03,44.3,87.36,52.98,54.35,10.64,76.43-27.26,158.29-54.67,41.14-13.78,127.87-42.82,199.91-6.78,68.18,34.11,92.8,111.33,101.04,144.26-640-.24-1280-.48-1920-.73C.37,846.77-.37,614.27-1.11,381.76Z"/></svg>