<?xml version="1.0" encoding="UTF-8"?><svg id="Layer_5" xmlns="http://www.w3.org/2000/svg" width="1920" height="1080" viewBox="0 0 1920 1080"><defs><style>.cls-1{fill:#67244e;stroke-width:0px;}</style></defs><path class="cls-1" d="m-2.21,268.98c33.88-16.53,98.99-41.61,160.94-16.94,26.67,10.62,45.25,29.81,81.32,67.76,90.85,95.59,90.88,137.27,140.61,152.47,50.5,15.44,67.06-22.47,125.36-8.47,47.67,11.45,60.17,42.44,123.67,105.04,76.36,75.27,122.25,120.5,188.05,135.53,88.4,20.19,117.8-35.84,191.43-8.47,80.23,29.82,67.84,104.7,140.61,133.84,96.39,38.58,157.41-77.06,265.98-49.13,100.56,25.87,88.93,135.58,221.93,179.58,67,22.17,134.38,15.64,154.16,13.55,55.85-5.9,99.77-22.37,128.15-35.58v141.84H0c-.74-270.34-1.48-540.68-2.21-811.02Z"/></svg>