<?xml version="1.0" encoding="UTF-8"?><svg id="e" xmlns="http://www.w3.org/2000/svg" width="1920" height="134.25" viewBox="0 0 1920 134.25"><defs><style>.f{fill:#893068;stroke-width:0px;}</style></defs><path class="f" d="m0,13.7c25.81,19.24,68.79,44.11,130.32,47.92,75.36,4.66,114.72-24.63,180.71-16.23,69.29,8.82,56.5,45.47,129.88,58.69,54.06,9.74,76.97-7.26,221.93-15.59,79.8-4.59,144.67-3.27,167.72-1.52,67.04,5.09,65.76,12.57,124.16,16.32,66.08,4.25,92.67-3.71,191.45-9.36,21.57-1.23,95.64-5.17,180.08-3.4,139.59,2.91,151.83,18.13,246.42,13.62,83.56-3.99,94.33-16.84,170.6-17.87,75.51-1.02,137.44,10.6,176.74,20.09v27.88c-640,0-1280,0-1920,0V13.7Z"/></svg>