<?xml version="1.0" encoding="UTF-8"?><svg id="Layer_1" xmlns="http://www.w3.org/2000/svg" width="1920" height="1080" viewBox="0 0 1920 1080"><defs><style>.cls-1{fill:#d0acc3;stroke-width:0px;}</style></defs><path class="cls-1" d="m0,811.5c25.81,42.85,68.79,98.26,130.32,106.73,75.36,10.38,114.72-54.86,180.71-36.14,69.29,19.65,56.5,101.27,129.88,130.73,54.06,21.7,76.97-16.18,221.93-34.73,79.8-10.21,144.67-7.29,167.72-3.39,67.04,11.35,65.76,27.99,124.16,36.36,66.08,9.47,92.67-8.26,191.45-20.85,21.57-2.75,95.64-11.51,180.08-7.58,139.59,6.49,151.83,40.39,246.42,30.33,83.56-8.89,94.33-37.51,170.6-39.81,75.51-2.27,137.44,23.6,176.74,44.75v62.1H0v-268.5Z"/></svg>