<?xml version="1.0" encoding="UTF-8"?><svg id="Layer_3" xmlns="http://www.w3.org/2000/svg" width="1920" height="1080" viewBox="0 0 1920 1080"><defs><style>.cls-1{fill:#a15986;stroke-width:0px;}</style></defs><path class="cls-1" d="m1.17,569.81c46.1-17.41,115.21-34.92,171.11-3.39,60.85,34.32,48.1,94.07,115.2,140.61,55.15,38.26,122.41,38.57,205.2,38.96,85.65.4,109.65-16.45,153.95,5.08,56.72,27.57,40.82,66.6,93.39,88.09,61.61,25.19,129.62-5.47,174.49,27.11,7.17,5.2,12.11,10.41,15.76,15.68,22.16,32.07,21.47,50.74,31.68,62.25,28.52,32.17,124.97-57.31,253.9-50.82,47.13,2.37,42.85,14.76,130.45,25.41,87.34,10.62,98.39-.88,135.53,15.25,58.38,25.35,58.59,65.7,118.59,105.04,32.69,21.43,76.58,38.26,136.5,40.92H0c.39-170.06.78-340.13,1.17-510.19Z"/></svg>