<?xml version="1.0" encoding="UTF-8"?><svg id="Layer_2" xmlns="http://www.w3.org/2000/svg" width="1920" height="1080" viewBox="0 0 1920 1080"><defs><style>.cls-1{fill:#ba0000;}.cls-1,.cls-2{stroke-width:0px;}.cls-2{fill:#b883a4;}</style></defs><path class="cls-1" d="m-.52,761.24c15.44,10.28,42.19,25.74,77.93,33.88,99.28,22.61,144.34-39.41,223.62-16.94,60,17.01,46.93,56.15,133.27,99.39,23.24,11.64,82.49,38.01,158.12,37.84,92.76-.21,98.99-40.09,171.11-35.58,89.74,5.62,100.01,68.64,201.6,84.71,41.6,6.58,31.17-5.37,169.41-20.33,102.58-11.1,179.72-12.25,254.12,11.86,24.18,7.84,49.47,18.8,71.15,42.35,27.19,29.55,34.92,63.94,37.52,81.58H0l-.52-318.76Z"/><path class="cls-2" d="m-.52,761.24c15.44,10.28,42.19,25.74,77.93,33.88,99.28,22.61,144.34-39.41,223.62-16.94,60,17.01,46.93,56.15,133.27,99.39,23.24,11.64,82.49,38.01,158.12,37.84,92.76-.21,98.99-40.09,171.11-35.58,89.74,5.62,100.01,68.64,201.6,84.71,41.6,6.58,31.17-5.37,169.41-20.33,102.58-11.1,179.72-12.25,254.12,11.86,24.18,7.84,49.47,18.8,71.15,42.35,27.19,29.55,34.92,63.94,37.52,81.58H0l-.52-318.76Z"/></svg>